<svg width="25" height="25" viewBox="0 0 25 25" fill="none" xmlns="http://www.w3.org/2000/svg">
<g clip-path="url(#clip0_48_1094)">
<path d="M4.42969 23.1474H18.1875C20.2969 23.1474 21.5156 21.9287 21.5156 19.5146V6.98725L19.6289 8.87397V19.4208C19.6289 20.6396 18.9727 21.2607 18.1641 21.2607H4.46484C3.29297 21.2607 2.63672 20.6396 2.63672 19.4208V6.12006C2.63672 4.90131 3.29297 4.2685 4.46484 4.2685H15.1406L17.0273 2.38178H4.42969C1.99219 2.38178 0.75 3.60053 0.75 6.01459V19.5146C0.75 21.9404 1.99219 23.1474 4.42969 23.1474ZM8.69531 15.5537L10.9805 14.5576L21.9258 3.62397L20.3203 2.04194L9.38672 12.9755L8.33203 15.1787C8.23828 15.3779 8.47266 15.6474 8.69531 15.5537ZM22.793 2.7685L23.6367 1.90131C24.0352 1.47944 24.0352 0.916936 23.6367 0.530217L23.3672 0.248967C23.0039 -0.114314 22.4297 -0.0674387 22.043 0.307561L21.1875 1.15131L22.793 2.7685Z" fill="#101011"/>
</g>
<defs>
<clipPath id="clip0_48_1094">
<rect width="23.1855" height="24.7675" fill="white" transform="translate(0.75)"/>
</clipPath>
</defs>
</svg>
