<svg width="25" height="24" viewBox="0 0 25 24" fill="none" xmlns="http://www.w3.org/2000/svg">
<g clip-path="url(#clip0_48_1558)">
<path d="M4.92969 22.5977H19.1445C21.6055 22.5977 22.8242 21.3789 22.8242 18.9648V4.65625C22.8242 2.24219 21.6055 1.02344 19.1445 1.02344H4.92969C2.48047 1.02344 1.25 2.23047 1.25 4.65625V18.9648C1.25 21.3906 2.48047 22.5977 4.92969 22.5977ZM4.95312 20.7109C3.78125 20.7109 3.13672 20.0898 3.13672 18.8711V4.75C3.13672 3.53125 3.78125 2.91016 4.95312 2.91016H19.1211C20.2812 2.91016 20.9375 3.53125 20.9375 4.75V18.8711C20.9375 20.0898 20.2812 20.7109 19.1211 20.7109H4.95312ZM6.21875 14.1367H17.7617C18.1719 14.1367 18.4766 13.8203 18.4766 13.4102C18.4766 13.0117 18.1719 12.6953 17.7617 12.6953H6.21875C5.78516 12.6953 5.48047 13.0117 5.48047 13.4102C5.48047 13.8203 5.78516 14.1367 6.21875 14.1367ZM6.21875 18.1445H14.668C15.0898 18.1445 15.3945 17.8281 15.3945 17.4297C15.3945 17.0195 15.0898 16.7031 14.668 16.7031H6.21875C5.78516 16.7031 5.48047 17.0195 5.48047 17.4297C5.48047 17.8281 5.78516 18.1445 6.21875 18.1445ZM5.51562 6.07422V8.93359C5.51562 9.66016 5.94922 10.0938 6.67578 10.0938H9.53516C10.2617 10.0938 10.6953 9.66016 10.6953 8.93359V6.07422C10.6953 5.34766 10.2617 4.91406 9.53516 4.91406H6.67578C5.94922 4.91406 5.51562 5.34766 5.51562 6.07422Z" fill="#101011"/>
</g>
<defs>
<clipPath id="clip0_48_1558">
<rect width="21.5742" height="21.5977" fill="white" transform="translate(1.25 1)"/>
</clipPath>
</defs>
</svg>
